# xmcd
#
# Track frame offsets:
#	150
#	35755
#	57143
#	83236
#	113523
#	137367
#	170876
#	193460
#	220992
#	247431
#
# Disc length: 3555
#
# Revision: 2
# Processed by: cddbd v1.5.1PL0 Copyright (c) Steve Scherf et al.
# Submitted via: audiograbber 1.81.03
# Normalized: r1:TRMNUM
#
DISCID=990de10a
DTITLE=Junior Wells - Better Off with the Blues
DYEAR=1900
DGENRE=
TTITLE0=Cry For Me Babe
TTITLE1=Do A Little Something For Yourself
TTITLE2=Oh Pretty Woman
TTITLE3=Goin' Home
TTITLE4=Waitin' On Ice
TTITLE5=Better Off With The Blues
TTITLE6=The Train
TTITLE7=Today I Started Loving You Again
TTITLE8=Honest I Do
TTITLE9=Messin' With The Kid
EXTD=
EXTT0=
EXTT1=
EXTT2=
EXTT3=
EXTT4=
EXTT5=
EXTT6=
EXTT7=
EXTT8=
EXTT9=
PLAYORDER=
